<?xml version="1.0" encoding="utf-8"?>
<svg viewBox="26.993 155.486 574.152 91.787" xmlns="http://www.w3.org/2000/svg">
  <rect x="20.328" y="148.567" width="623.93" height="100.594" style="fill: transparent"/>
  <rect x="41.944" y="180.011" width="32.387" height="48.774" style="fill: none; stroke-width: 2px; stroke: rgb(251, 145, 37);"/>
  <rect x="78.319" y="161.851" width="32.387" height="66.935" style="fill: none; stroke-width: 2px; stroke: rgb(251, 145, 37);"/>
  <rect x="114.659" y="199.048" width="32.387" height="29.731" style="fill: none; stroke-width: 2px; stroke: rgb(251, 145, 37);"/>
  <line style="stroke: rgb(251, 145, 37);" x1="116.162" y1="217.378" x2="145.48" y2="217.378"/>
  <line style="stroke: rgb(251, 145, 37);" x1="116.162" y1="211.252" x2="145.48" y2="211.252"/>
  <line style="stroke: rgb(251, 145, 37);" x1="116.162" y1="223.504" x2="145.48" y2="223.504"/>
  <line style="stroke: rgb(251, 145, 37);" x1="79.895" y1="211.252" x2="109.213" y2="211.252"/>
  <line style="stroke: rgb(251, 145, 37);" x1="79.895" y1="217.378" x2="109.213" y2="217.378"/>
  <line style="stroke: rgb(251, 145, 37);" x1="79.895" y1="223.504" x2="109.213" y2="223.504"/>
  <line style="stroke: rgb(251, 145, 37);" x1="79.895" y1="205.127" x2="109.213" y2="205.127"/>
  <line style="stroke: rgb(251, 145, 37);" x1="79.895" y1="199.001" x2="109.213" y2="199.001"/>
  <line style="stroke: rgb(251, 145, 37);" x1="79.895" y1="192.875" x2="109.213" y2="192.875"/>
  <line style="stroke: rgb(251, 145, 37);" x1="79.895" y1="186.75" x2="109.213" y2="186.75"/>
  <line style="stroke: rgb(251, 145, 37);" x1="79.895" y1="180.624" x2="109.213" y2="180.624"/>
  <line style="stroke: rgb(251, 145, 37);" x1="79.895" y1="174.498" x2="109.213" y2="174.498"/>
  <line style="stroke: rgb(251, 145, 37);" x1="79.895" y1="168.373" x2="109.213" y2="168.373"/>
  <line style="stroke: rgb(251, 145, 37);" x1="43.46" y1="211.252" x2="72.777" y2="211.252"/>
  <line style="stroke: rgb(251, 145, 37);" x1="43.46" y1="217.378" x2="72.777" y2="217.378"/>
  <line style="stroke: rgb(251, 145, 37);" x1="43.46" y1="223.504" x2="72.777" y2="223.504"/>
  <line style="stroke: rgb(251, 145, 37);" x1="43.46" y1="205.127" x2="72.777" y2="205.127"/>
  <line style="stroke: rgb(251, 145, 37);" x1="43.46" y1="199.001" x2="72.777" y2="199.001"/>
  <line style="stroke: rgb(251, 145, 37);" x1="43.46" y1="192.875" x2="72.777" y2="192.875"/>
  <line style="stroke: rgb(251, 145, 37);" x1="116.162" y1="205.127" x2="145.48" y2="205.127"/>
  <line style="stroke: rgb(251, 145, 37);" x1="43.46" y1="186.75" x2="72.777" y2="186.75"/>
  <path d="M 141.455 198.159 C 141.455 195.032 141.945 192.089 142.925 189.329 C 143.905 186.569 145.408 184.162 147.435 182.109 C 149.455 180.049 152.015 178.422 155.115 177.229 C 158.215 176.036 161.912 175.439 166.205 175.439 C 168.778 175.439 171.108 175.622 173.195 175.989 C 175.282 176.356 177.398 176.969 179.545 177.829 L 177.055 186.939 C 175.828 186.506 174.465 186.122 172.965 185.789 C 171.458 185.449 169.542 185.279 167.215 185.279 C 164.515 185.279 162.262 185.602 160.455 186.249 C 158.642 186.889 157.185 187.776 156.085 188.909 C 154.978 190.049 154.178 191.416 153.685 193.009 C 153.198 194.602 152.955 196.319 152.955 198.159 C 152.955 202.146 154.075 205.272 156.315 207.539 C 158.548 209.812 162.365 210.949 167.765 210.949 C 169.545 210.949 171.402 210.826 173.335 210.579 C 175.262 210.332 177.025 209.932 178.625 209.379 L 180.275 218.679 C 178.682 219.292 176.752 219.796 174.485 220.189 C 172.212 220.589 169.542 220.789 166.475 220.789 C 162.062 220.789 158.275 220.206 155.115 219.039 C 151.955 217.879 149.365 216.286 147.345 214.259 C 145.318 212.232 143.828 209.839 142.875 207.079 C 141.928 204.319 141.455 201.346 141.455 198.159 ZM 226.823 198.069 C 226.823 201.502 226.333 204.616 225.353 207.409 C 224.373 210.196 222.993 212.602 221.213 214.629 C 219.433 216.649 217.303 218.212 214.823 219.319 C 212.336 220.426 209.56 220.979 206.493 220.979 C 203.426 220.979 200.653 220.426 198.173 219.319 C 195.686 218.212 193.54 216.649 191.733 214.629 C 189.92 212.602 188.523 210.196 187.543 207.409 C 186.563 204.616 186.073 201.502 186.073 198.069 C 186.073 194.696 186.58 191.612 187.593 188.819 C 188.6 186.032 190.01 183.642 191.823 181.649 C 193.63 179.656 195.79 178.122 198.303 177.049 C 200.823 175.976 203.553 175.439 206.493 175.439 C 209.5 175.439 212.246 175.976 214.733 177.049 C 217.213 178.122 219.36 179.656 221.173 181.649 C 222.98 183.642 224.373 186.032 225.353 188.819 C 226.333 191.612 226.823 194.696 226.823 198.069 Z M 197.573 198.159 C 197.573 202.026 198.263 205.152 199.643 207.539 C 201.023 209.932 203.246 211.129 206.313 211.129 C 209.253 211.129 211.476 209.932 212.983 207.539 C 214.483 205.152 215.233 202.026 215.233 198.159 C 215.233 194.292 214.543 191.179 213.163 188.819 C 211.783 186.459 209.56 185.279 206.493 185.279 C 203.553 185.279 201.33 186.459 199.823 188.819 C 198.323 191.179 197.573 194.292 197.573 198.159 ZM 255.531 164.119 C 255.531 166.326 254.824 168.072 253.411 169.359 C 252.004 170.652 250.317 171.299 248.351 171.299 C 246.391 171.299 244.721 170.652 243.341 169.359 C 241.961 168.072 241.271 166.326 241.271 164.119 C 241.271 161.852 241.961 160.072 243.341 158.779 C 244.721 157.492 246.391 156.849 248.351 156.849 C 250.317 156.849 252.004 157.492 253.411 158.779 C 254.824 160.072 255.531 161.852 255.531 164.119 Z M 270.891 208.829 L 272.361 217.939 C 270.034 219.046 267.844 219.796 265.791 220.189 C 263.731 220.589 261.844 220.789 260.131 220.789 C 257.184 220.789 254.714 220.359 252.721 219.499 C 250.727 218.646 249.134 217.406 247.941 215.779 C 246.741 214.152 245.897 212.172 245.411 209.839 C 244.917 207.512 244.671 204.846 244.671 201.839 L 244.671 185.919 L 232.711 185.919 L 232.711 176.539 L 255.991 176.539 L 255.991 203.309 C 255.991 205.889 256.464 207.806 257.411 209.059 C 258.364 210.319 259.944 210.949 262.151 210.949 C 263.197 210.949 264.454 210.809 265.921 210.529 C 267.394 210.256 269.051 209.689 270.891 208.829 ZM 281.199 219.779 L 281.199 177.919 C 283.219 177.366 285.715 176.846 288.689 176.359 C 291.669 175.866 294.905 175.619 298.399 175.619 C 301.832 175.619 304.685 176.096 306.959 177.049 C 309.225 177.996 311.019 179.342 312.339 181.089 C 313.659 182.842 314.592 184.929 315.139 187.349 C 315.692 189.769 315.969 192.452 315.969 195.399 L 315.969 219.779 L 304.659 219.779 L 304.659 196.869 C 304.659 192.822 304.199 189.909 303.279 188.129 C 302.359 186.349 300.485 185.459 297.659 185.459 C 296.805 185.459 295.962 185.492 295.129 185.559 C 294.302 185.619 293.429 185.709 292.509 185.829 L 292.509 219.779 L 281.199 219.779 ZM 342.736 211.499 C 344.643 211.499 346.223 211.299 347.476 210.899 C 348.736 210.499 349.733 209.949 350.466 209.249 C 351.206 208.542 351.713 207.742 351.986 206.849 C 352.26 205.962 352.396 205.059 352.396 204.139 C 352.396 202.972 352.06 201.929 351.386 201.009 C 350.713 200.089 349.856 199.276 348.816 198.569 C 347.77 197.869 346.603 197.226 345.316 196.639 C 344.03 196.059 342.743 195.522 341.456 195.029 C 339.736 194.416 337.956 193.712 336.116 192.919 C 334.276 192.119 332.606 191.106 331.106 189.879 C 329.6 188.652 328.356 187.136 327.376 185.329 C 326.396 183.516 325.906 181.259 325.906 178.559 C 325.906 173.226 327.64 169.056 331.106 166.049 C 334.566 163.042 339.333 161.539 345.406 161.539 C 348.906 161.539 351.96 161.939 354.566 162.739 C 357.173 163.539 359.363 164.429 361.136 165.409 L 357.826 174.149 C 356.293 173.289 354.593 172.552 352.726 171.939 C 350.853 171.326 348.69 171.019 346.236 171.019 C 340.223 171.019 337.216 173.196 337.216 177.549 C 337.216 178.656 337.523 179.622 338.136 180.449 C 338.75 181.276 339.533 182.012 340.486 182.659 C 341.44 183.299 342.513 183.866 343.706 184.359 C 344.9 184.852 346.08 185.312 347.246 185.739 C 349.026 186.412 350.883 187.162 352.816 187.989 C 354.75 188.822 356.526 189.929 358.146 191.309 C 359.773 192.689 361.11 194.406 362.156 196.459 C 363.196 198.512 363.716 201.102 363.716 204.229 C 363.716 209.569 361.983 213.696 358.516 216.609 C 355.05 219.522 349.79 220.979 342.736 220.979 C 338.016 220.979 334.246 220.472 331.426 219.459 C 328.606 218.446 326.49 217.509 325.076 216.649 L 328.386 207.449 C 330.046 208.429 332.026 209.349 334.326 210.209 C 336.626 211.069 339.43 211.499 342.736 211.499 ZM 380.554 203.679 L 380.554 185.919 L 370.704 185.919 L 370.704 176.539 L 380.554 176.539 L 380.554 165.679 L 391.864 163.839 L 391.864 176.539 L 409.994 176.539 L 409.994 185.919 L 391.864 185.919 L 391.864 203.399 C 391.864 204.999 392.018 206.289 392.324 207.269 C 392.631 208.249 393.061 209.016 393.614 209.569 C 394.168 210.122 394.841 210.489 395.634 210.669 C 396.434 210.856 397.324 210.949 398.304 210.949 C 399.351 210.949 400.318 210.919 401.204 210.859 C 402.091 210.792 402.951 210.682 403.784 210.529 C 404.611 210.376 405.468 210.146 406.354 209.839 C 407.248 209.532 408.214 209.136 409.254 208.649 L 410.814 218.399 C 408.734 219.259 406.481 219.872 404.054 220.239 C 401.634 220.606 399.288 220.789 397.014 220.789 C 394.381 220.789 392.051 220.576 390.024 220.149 C 388.004 219.716 386.288 218.886 384.874 217.659 C 383.461 216.432 382.388 214.702 381.654 212.469 C 380.921 210.229 380.554 207.299 380.554 203.679 ZM 436.482 211.679 C 437.709 211.679 438.906 211.666 440.072 211.639 C 441.239 211.606 442.252 211.529 443.112 211.409 L 443.112 201.469 C 442.372 201.349 441.482 201.242 440.442 201.149 C 439.396 201.056 438.446 201.009 437.592 201.009 C 436.426 201.009 435.289 201.086 434.182 201.239 C 433.082 201.392 432.116 201.652 431.282 202.019 C 430.456 202.392 429.799 202.916 429.312 203.589 C 428.819 204.262 428.572 205.152 428.572 206.259 C 428.572 208.219 429.309 209.612 430.782 210.439 C 432.256 211.266 434.156 211.679 436.482 211.679 Z M 435.472 175.439 C 439.032 175.439 441.992 175.852 444.352 176.679 C 446.712 177.506 448.599 178.669 450.012 180.169 C 451.419 181.676 452.429 183.516 453.042 185.689 C 453.656 187.869 453.962 190.309 453.962 193.009 L 453.962 218.769 C 452.309 219.136 449.856 219.566 446.602 220.059 C 443.356 220.546 439.706 220.789 435.652 220.789 C 432.892 220.789 430.396 220.546 428.162 220.059 C 425.922 219.566 424.006 218.752 422.412 217.619 C 420.812 216.486 419.586 215.012 418.732 213.199 C 417.872 211.392 417.442 209.169 417.442 206.529 C 417.442 204.016 417.932 201.899 418.912 200.179 C 419.892 198.466 421.212 197.086 422.872 196.039 C 424.526 194.999 426.426 194.249 428.572 193.789 C 430.719 193.329 432.959 193.099 435.292 193.099 C 438.232 193.099 440.839 193.346 443.112 193.839 L 443.112 192.459 C 443.112 190.312 442.436 188.516 441.082 187.069 C 439.736 185.629 437.406 184.909 434.092 184.909 C 431.946 184.909 429.876 185.062 427.882 185.369 C 425.889 185.676 424.279 186.046 423.052 186.479 L 421.492 177.369 C 422.899 176.876 424.892 176.429 427.472 176.029 C 430.046 175.636 432.712 175.439 435.472 175.439 ZM 463.44 198.159 C 463.44 195.032 463.93 192.089 464.91 189.329 C 465.89 186.569 467.393 184.162 469.42 182.109 C 471.44 180.049 474 178.422 477.1 177.229 C 480.2 176.036 483.897 175.439 488.19 175.439 C 490.763 175.439 493.093 175.622 495.18 175.989 C 497.267 176.356 499.383 176.969 501.53 177.829 L 499.04 186.939 C 497.813 186.506 496.45 186.122 494.95 185.789 C 493.443 185.449 491.527 185.279 489.2 185.279 C 486.5 185.279 484.247 185.602 482.44 186.249 C 480.627 186.889 479.17 187.776 478.07 188.909 C 476.963 190.049 476.163 191.416 475.67 193.009 C 475.183 194.602 474.94 196.319 474.94 198.159 C 474.94 202.146 476.06 205.272 478.3 207.539 C 480.533 209.812 484.35 210.949 489.75 210.949 C 491.53 210.949 493.387 210.826 495.32 210.579 C 497.247 210.332 499.01 209.932 500.61 209.379 L 502.26 218.679 C 500.667 219.292 498.737 219.796 496.47 220.189 C 494.197 220.589 491.527 220.789 488.46 220.789 C 484.047 220.789 480.26 220.206 477.1 219.039 C 473.94 217.879 471.35 216.286 469.33 214.259 C 467.303 212.232 465.813 209.839 464.86 207.079 C 463.913 204.319 463.44 201.346 463.44 198.159 ZM 522.588 155.929 L 522.588 193.649 C 523.695 192.362 524.815 190.999 525.948 189.559 C 527.081 188.119 528.185 186.632 529.258 185.099 C 530.331 183.566 531.361 182.076 532.348 180.629 C 533.328 179.189 534.185 177.826 534.918 176.539 L 548.538 176.539 C 547.431 177.952 546.175 179.486 544.768 181.139 C 543.355 182.792 541.898 184.479 540.398 186.199 C 538.891 187.919 537.388 189.576 535.888 191.169 C 534.381 192.762 533.015 194.232 531.788 195.579 C 533.321 197.052 534.978 198.816 536.758 200.869 C 538.538 202.929 540.288 205.062 542.008 207.269 C 543.721 209.476 545.298 211.682 546.738 213.889 C 548.185 216.096 549.335 218.059 550.188 219.779 L 537.218 219.779 C 536.485 218.246 535.518 216.512 534.318 214.579 C 533.125 212.646 531.855 210.746 530.508 208.879 C 529.155 207.006 527.788 205.226 526.408 203.539 C 525.028 201.852 523.755 200.459 522.588 199.359 L 522.588 219.779 L 511.188 219.779 L 511.188 157.859 L 522.588 155.929 Z" transform="matrix(1, 0, 0, 1, 36, 9)" style="fill: rgb(32, 156, 238); white-space: pre;"/>
</svg>